{
    "asset" : {
        "generator" : "Khronos glTF Blender I/O v3.2.40",
        "version" : "2.0"
    },
    "scene" : 0,
    "scenes" : [
        {
            "name" : "Scene",
            "nodes" : [
                0,
                1,
                2,
                3,
                4,
                5
            ]
        }
    ],
    "nodes" : [
        {
            "mesh" : 0,
            "name" : "Curve",
            "rotation" : [
                0.7028297781944275,
                0,
                0,
                0.7113581299781799
            ],
            "scale" : [
                457.2801818847656,
                457.2801818847656,
                457.2801818847656
            ],
            "translation" : [
                -13.975262641906738,
                2.1909615993499756,
                11.52816104888916
            ]
        },
        {
            "mesh" : 1,
            "name" : "Curve.001",
            "rotation" : [
                0.7028297781944275,
                0,
                0,
                0.7113581299781799
            ],
            "scale" : [
                457.2801818847656,
                457.2801818847656,
                457.2801818847656
            ],
            "translation" : [
                -13.975262641906738,
                2.199483871459961,
                12.234725952148438
            ]
        },
        {
            "mesh" : 2,
            "name" : "Curve.002",
            "rotation" : [
                0.7028297781944275,
                0,
                0,
                0.7113581299781799
            ],
            "scale" : [
                457.2801818847656,
                457.2801818847656,
                457.2801818847656
            ],
            "translation" : [
                -13.975262641906738,
                2.199483871459961,
                12.234725952148438
            ]
        },
        {
            "mesh" : 3,
            "name" : "Curve.003",
            "rotation" : [
                0.7028297781944275,
                0,
                0,
                0.7113581299781799
            ],
            "scale" : [
                457.2801818847656,
                457.2801818847656,
                457.2801818847656
            ],
            "translation" : [
                -13.975262641906738,
                2.1860992908477783,
                11.125055313110352
            ]
        },
        {
            "mesh" : 4,
            "name" : "Curve.004",
            "rotation" : [
                0.7028297781944275,
                0,
                0,
                0.7113581299781799
            ],
            "scale" : [
                457.2801818847656,
                457.2801818847656,
                457.2801818847656
            ],
            "translation" : [
                -13.975262641906738,
                2.1860992908477783,
                11.125055313110352
            ]
        },
        {
            "mesh" : 5,
            "name" : "Curve.005",
            "rotation" : [
                0.7028297781944275,
                0,
                0,
                0.7113581299781799
            ],
            "scale" : [
                457.2801818847656,
                457.2801818847656,
                457.2801818847656
            ],
            "translation" : [
                -13.975262641906738,
                2.1860992908477783,
                11.125055313110352
            ]
        }
    ],
    "materials" : [
        {
            "doubleSided" : true,
            "name" : "SVGMat",
            "pbrMetallicRoughness" : {
                "baseColorFactor" : [
                    1,
                    1,
                    1,
                    1
                ],
                "metallicFactor" : 0,
                "roughnessFactor" : 0.4000000059604645
            }
        }
    ],
    "meshes" : [
        {
            "name" : "Curve",
            "primitives" : [
                {
                    "attributes" : {
                        "POSITION" : 0,
                        "NORMAL" : 1,
                        "TEXCOORD_0" : 2
                    },
                    "indices" : 3,
                    "material" : 0
                }
            ]
        },
        {
            "name" : "Curve.001",
            "primitives" : [
                {
                    "attributes" : {
                        "POSITION" : 4,
                        "NORMAL" : 5,
                        "TEXCOORD_0" : 6
                    },
                    "indices" : 7,
                    "material" : 0
                }
            ]
        },
        {
            "name" : "Curve.002",
            "primitives" : [
                {
                    "attributes" : {
                        "POSITION" : 8,
                        "NORMAL" : 9,
                        "TEXCOORD_0" : 10
                    },
                    "indices" : 11,
                    "material" : 0
                }
            ]
        },
        {
            "name" : "Curve.003",
            "primitives" : [
                {
                    "attributes" : {
                        "POSITION" : 12,
                        "NORMAL" : 13,
                        "TEXCOORD_0" : 14
                    },
                    "indices" : 15,
                    "material" : 0
                }
            ]
        },
        {
            "name" : "Curve.004",
            "primitives" : [
                {
                    "attributes" : {
                        "POSITION" : 16,
                        "NORMAL" : 17,
                        "TEXCOORD_0" : 18
                    },
                    "indices" : 19,
                    "material" : 0
                }
            ]
        },
        {
            "name" : "Curve.005",
            "primitives" : [
                {
                    "attributes" : {
                        "POSITION" : 20,
                        "NORMAL" : 21,
                        "TEXCOORD_0" : 22
                    },
                    "indices" : 23,
                    "material" : 0
                }
            ]
        }
    ],
    "accessors" : [
        {
            "bufferView" : 0,
            "componentType" : 5126,
            "count" : 85,
            "max" : [
                0.03588961064815521,
                0,
                -0.02140073850750923
            ],
            "min" : [
                0.02504565939307213,
                0,
                -0.02842843532562256
            ],
            "type" : "VEC3"
        },
        {
            "bufferView" : 1,
            "componentType" : 5126,
            "count" : 85,
            "type" : "VEC3"
        },
        {
            "bufferView" : 2,
            "componentType" : 5126,
            "count" : 85,
            "type" : "VEC2"
        },
        {
            "bufferView" : 3,
            "componentType" : 5123,
            "count" : 177,
            "type" : "SCALAR"
        },
        {
            "bufferView" : 4,
            "componentType" : 5126,
            "count" : 173,
            "max" : [
                0.048311054706573486,
                0,
                -0.02758278138935566
            ],
            "min" : [
                0.03507954999804497,
                0,
                -0.042756255716085434
            ],
            "type" : "VEC3"
        },
        {
            "bufferView" : 5,
            "componentType" : 5126,
            "count" : 173,
            "type" : "VEC3"
        },
        {
            "bufferView" : 6,
            "componentType" : 5126,
            "count" : 173,
            "type" : "VEC2"
        },
        {
            "bufferView" : 7,
            "componentType" : 5123,
            "count" : 354,
            "type" : "SCALAR"
        },
        {
            "bufferView" : 8,
            "componentType" : 5126,
            "count" : 160,
            "max" : [
                0.026020372286438942,
                0,
                -0.02758278138935566
            ],
            "min" : [
                0.012788873165845871,
                0,
                -0.042756255716085434
            ],
            "type" : "VEC3"
        },
        {
            "bufferView" : 9,
            "componentType" : 5126,
            "count" : 160,
            "type" : "VEC3"
        },
        {
            "bufferView" : 10,
            "componentType" : 5126,
            "count" : 160,
            "type" : "VEC2"
        },
        {
            "bufferView" : 11,
            "componentType" : 5123,
            "count" : 354,
            "type" : "SCALAR"
        },
        {
            "bufferView" : 12,
            "componentType" : 5126,
            "count" : 251,
            "max" : [
                0.05588029325008392,
                0,
                -0.04999902844429016
            ],
            "min" : [
                0.04076609015464783,
                0,
                -0.06531579047441483
            ],
            "type" : "VEC3"
        },
        {
            "bufferView" : 13,
            "componentType" : 5126,
            "count" : 251,
            "type" : "VEC3"
        },
        {
            "bufferView" : 14,
            "componentType" : 5126,
            "count" : 251,
            "type" : "VEC2"
        },
        {
            "bufferView" : 15,
            "componentType" : 5123,
            "count" : 609,
            "type" : "SCALAR"
        },
        {
            "bufferView" : 16,
            "componentType" : 5126,
            "count" : 233,
            "max" : [
                0.05884195491671562,
                0,
                -0.0028216689825057983
            ],
            "min" : [
                0.0028231798205524683,
                0,
                -0.0522773414850235
            ],
            "type" : "VEC3"
        },
        {
            "bufferView" : 17,
            "componentType" : 5126,
            "count" : 233,
            "type" : "VEC3"
        },
        {
            "bufferView" : 18,
            "componentType" : 5126,
            "count" : 233,
            "type" : "VEC2"
        },
        {
            "bufferView" : 19,
            "componentType" : 5123,
            "count" : 501,
            "type" : "SCALAR"
        },
        {
            "bufferView" : 20,
            "componentType" : 5126,
            "count" : 274,
            "max" : [
                0.02033383585512638,
                0,
                -0.04999902844429016
            ],
            "min" : [
                0.005219634156674147,
                0,
                -0.06531579047441483
            ],
            "type" : "VEC3"
        },
        {
            "bufferView" : 21,
            "componentType" : 5126,
            "count" : 274,
            "type" : "VEC3"
        },
        {
            "bufferView" : 22,
            "componentType" : 5126,
            "count" : 274,
            "type" : "VEC2"
        },
        {
            "bufferView" : 23,
            "componentType" : 5123,
            "count" : 609,
            "type" : "SCALAR"
        }
    ],
    "bufferViews" : [
        {
            "buffer" : 0,
            "byteLength" : 1020,
            "byteOffset" : 0
        },
        {
            "buffer" : 0,
            "byteLength" : 1020,
            "byteOffset" : 1020
        },
        {
            "buffer" : 0,
            "byteLength" : 680,
            "byteOffset" : 2040
        },
        {
            "buffer" : 0,
            "byteLength" : 354,
            "byteOffset" : 2720
        },
        {
            "buffer" : 0,
            "byteLength" : 2076,
            "byteOffset" : 3076
        },
        {
            "buffer" : 0,
            "byteLength" : 2076,
            "byteOffset" : 5152
        },
        {
            "buffer" : 0,
            "byteLength" : 1384,
            "byteOffset" : 7228
        },
        {
            "buffer" : 0,
            "byteLength" : 708,
            "byteOffset" : 8612
        },
        {
            "buffer" : 0,
            "byteLength" : 1920,
            "byteOffset" : 9320
        },
        {
            "buffer" : 0,
            "byteLength" : 1920,
            "byteOffset" : 11240
        },
        {
            "buffer" : 0,
            "byteLength" : 1280,
            "byteOffset" : 13160
        },
        {
            "buffer" : 0,
            "byteLength" : 708,
            "byteOffset" : 14440
        },
        {
            "buffer" : 0,
            "byteLength" : 3012,
            "byteOffset" : 15148
        },
        {
            "buffer" : 0,
            "byteLength" : 3012,
            "byteOffset" : 18160
        },
        {
            "buffer" : 0,
            "byteLength" : 2008,
            "byteOffset" : 21172
        },
        {
            "buffer" : 0,
            "byteLength" : 1218,
            "byteOffset" : 23180
        },
        {
            "buffer" : 0,
            "byteLength" : 2796,
            "byteOffset" : 24400
        },
        {
            "buffer" : 0,
            "byteLength" : 2796,
            "byteOffset" : 27196
        },
        {
            "buffer" : 0,
            "byteLength" : 1864,
            "byteOffset" : 29992
        },
        {
            "buffer" : 0,
            "byteLength" : 1002,
            "byteOffset" : 31856
        },
        {
            "buffer" : 0,
            "byteLength" : 3288,
            "byteOffset" : 32860
        },
        {
            "buffer" : 0,
            "byteLength" : 3288,
            "byteOffset" : 36148
        },
        {
            "buffer" : 0,
            "byteLength" : 2192,
            "byteOffset" : 39436
        },
        {
            "buffer" : 0,
            "byteLength" : 1218,
            "byteOffset" : 41628
        }
    ],
    "buffers" : [
        {
            "byteLength" : 42848,
            "uri" : "logo.bin"
        }
    ]
}
